<svg xmlns="http://www.w3.org/2000/svg" viewBox="0 0 360 260" role="img" aria-labelledby="t d"><title id="t">Эксперт по звучанию</title><desc id="d">Эксперт слушает запись в наушниках и следит за звуковой волной</desc><rect width="360" height="260" rx="24" fill="#e8fbf1"/><rect x="174" y="39" width="150" height="110" rx="12" fill="#0755e8"/><g stroke="#fff" stroke-width="6" stroke-linecap="round"><path d="M195 101V86M216 113V69M237 103V82M258 120V61M279 104V81M300 112V71"/></g><circle cx="104" cy="91" r="46" fill="#ed1c2e"/><path d="M55 91c9-59 88-62 98 0-38-18-70-18-98 0Z" fill="#002d88"/><path d="M46 260c4-98 24-147 59-147 36 0 57 49 62 147Z" fill="#0755e8"/><path d="M57 87c0-65 95-65 95 0v32" fill="none" stroke="#002d88" stroke-width="13"/><rect x="45" y="90" width="23" height="57" rx="11" fill="#00a957"/><rect x="141" y="90" width="23" height="57" rx="11" fill="#00a957"/><path d="M149 194h149" stroke="#002d88" stroke-width="8" stroke-linecap="round"/><circle cx="204" cy="194" r="13" fill="#ed1c2e"/></svg>
